<svg width="222" height="54" viewBox="0 0 222 54" fill="none" xmlns="http://www.w3.org/2000/svg">
<path d="M75.16 20.59C74.26 17.88 72.88 15.79 71.04 14.32C69.32 12.96 67.17 12.24 64.58 12.14L51.77 24.95C51.55 26.57 51.43 28.33 51.43 30.24C51.43 33.04 51.69 35.56 52.2 37.8C52.72 40.04 53.49 41.96 54.52 43.55C55.55 45.14 56.86 46.36 58.43 47.21C60.01 48.06 61.86 48.48 63.99 48.48C66.12 48.48 67.94 48.06 69.51 47.22C71.08 46.38 72.38 45.17 73.41 43.6C74.44 42.02 75.21 40.11 75.73 37.86C76.25 35.61 76.5 33.09 76.5 30.29C76.5 26.54 76.05 23.3 75.15 20.59H75.16ZM68.89 37.15C68.48 38.95 67.87 40.3 67.05 41.19C66.24 42.08 65.22 42.52 63.99 42.52C62.76 42.52 61.77 42.06 60.95 41.15C60.13 40.24 59.51 38.88 59.09 37.07C58.67 35.26 58.46 33 58.46 30.29C58.46 27.58 58.67 25.32 59.09 23.5C59.51 21.68 60.13 20.31 60.95 19.39C61.77 18.47 62.79 18.01 63.99 18.01C65.83 18.01 67.2 19.02 68.12 21.04C69.04 23.06 69.5 26.14 69.5 30.28C69.5 33.05 69.29 35.34 68.88 37.14L68.89 37.15Z" fill="#F37021"/>
<path d="M101.12 28.7501C101.12 29.4301 101.14 30.1801 101.17 31.0001C101.2 31.8201 101.24 32.7101 101.29 33.6701C101.34 34.6301 101.39 35.6601 101.46 36.7801H101.27L90.98 12.6901H83.05V48.0201H89.38V31.6401C89.38 30.9601 89.37 30.2101 89.34 29.3701C89.32 28.5301 89.28 27.6101 89.22 26.6001C89.16 25.5901 89.09 24.5201 88.99 23.3701H89.18L99.52 48.0201H107.49V12.6901H101.11V28.7601L101.12 28.7501Z" fill="#F37021"/>
<path d="M115.07 48.0001H130.94V42.1101H121.86V32.5601H130.31V26.7601H121.86V18.4501H130.94V12.6801H115.07V48.0001Z" fill="#F37021"/>
<path d="M155.03 21.53C155.54 20.41 156.18 19.55 156.95 18.93C157.72 18.31 158.62 18.01 159.66 18.01C160.7 18.01 161.63 18.18 162.51 18.53C163.39 18.88 164.27 19.35 165.14 19.94L167.07 14.33C165.85 13.59 164.57 13.04 163.25 12.69C161.93 12.34 160.56 12.16 159.14 12.16C157.11 12.16 155.31 12.61 153.74 13.51C152.17 14.41 150.84 15.68 149.76 17.31C148.68 18.95 147.86 20.87 147.31 23.09C146.75 25.3 146.48 27.73 146.48 30.37C146.48 34.22 146.97 37.49 147.95 40.19C148.93 42.89 150.35 44.94 152.21 46.35C154.07 47.76 156.33 48.46 158.99 48.46C160.33 48.46 161.58 48.32 162.75 48.03C163.92 47.74 165.01 47.31 166.02 46.75V40.71C165.05 41.23 164.08 41.67 163.1 42.04C162.12 42.41 161.08 42.6 159.98 42.6C158.59 42.6 157.42 42.13 156.45 41.2C155.48 40.27 154.75 38.89 154.25 37.08C153.75 35.27 153.5 33.05 153.5 30.42C153.5 28.63 153.62 26.98 153.87 25.47C154.12 23.96 154.5 22.64 155.01 21.52L155.03 21.53Z" fill="#F37021"/>
<path d="M187.62 36.2401C187.62 37.7701 187.46 39 187.15 39.91C186.84 40.82 186.37 41.49 185.75 41.9C185.13 42.31 184.34 42.5201 183.39 42.5201C182.04 42.5201 181.01 42.04 180.3 41.08C179.59 40.12 179.24 38.52 179.24 36.28V12.67H172.47V36.5201C172.47 40.5501 173.41 43.5501 175.28 45.5201C177.16 47.4901 179.84 48.48 183.34 48.48C185.74 48.48 187.75 48.03 189.38 47.14C191.01 46.25 192.24 44.91 193.08 43.12C193.92 41.33 194.34 39.09 194.34 36.3801V12.68H187.62V36.2401Z" fill="#F37021"/>
<path d="M218.68 15.4701C216.93 13.6101 214.26 12.6801 210.67 12.6801H201.71V48.01H202.05L208.5 41.5601V35.4901H210.36C212.23 35.4901 213.85 35.2101 215.22 34.6401C215.35 34.5901 215.47 34.5201 215.6 34.4601C216.8 33.9101 217.81 33.1701 218.63 32.2201C219.19 31.5701 219.65 30.8301 220.03 30.0201C220.26 29.5301 220.48 29.0101 220.64 28.4601C221.08 27.0001 221.3 25.38 221.3 23.59C221.3 20.03 220.43 17.3201 218.68 15.4601V15.4701ZM214.03 27.1501C213.66 28.0401 213.11 28.6801 212.39 29.0801C211.66 29.4801 210.76 29.68 209.68 29.68H208.5V18.4401H210.17C211.65 18.4401 212.76 18.8501 213.49 19.6801C214.22 20.5101 214.59 21.8301 214.59 23.6301C214.59 25.0801 214.4 26.2501 214.03 27.1301V27.1501Z" fill="#F37021"/>
<path d="M36.85 7.02002H34.86L33.88 3.18002L4.53 0.27002L3.43 7.02002H1.57L0 10.48H38.42L36.85 7.02002Z" fill="#F37021"/>
<path d="M2.94 14.49L3.44 18.49L4.39 26.15L4.89 30.15L5.84 37.82L6.34 41.82L7.3 49.49L7.78 53.4H30.63L31.12 49.49L32.07 41.82L32.57 37.82L33.53 30.15L34.02 26.15L34.98 18.49L35.48 14.49H2.94Z" fill="#F37021"/>
</svg>
